<?xml version="1.0" encoding="UTF-8"?>
<svg width="120px" height="40px" viewBox="0 0 120 40" version="1.1" xmlns="http://www.w3.org/2000/svg" xmlns:xlink="http://www.w3.org/1999/xlink">
    <!-- Generator: Sketch 53.2 (72643) - https://sketchapp.com -->
    <title>Artboard</title>
    <desc>Created with Sketch.</desc>
    <g id="Artboard" stroke="none" stroke-width="1" fill="none" fill-rule="evenodd">
        <g id="Moonlet-Logo-_-Dark-Background" transform="translate(1.000000, 8.000000)" fill="#FFFFFF">
            <g id="Group" transform="translate(59.000000, 12.500000) scale(-1, 1) rotate(-180.000000) translate(-59.000000, -12.500000) ">
                <path d="M35.4400131,24.0423026 C35.2884631,24.016261 35.1630424,23.969386 35.1630424,23.9433443 C35.1630424,23.9173026 35.1160096,23.8964693 35.0532992,23.8964693 C34.9958147,23.8964693 34.8808457,23.8652193 34.8076837,23.8235526 C34.7292957,23.781886 34.5516163,23.6985526 34.4157439,23.6360526 C34.2798714,23.5735526 34.1387731,23.4954276 34.1021921,23.4589693 C34.065611,23.4277193 33.9819972,23.3704276 33.9088351,23.3339693 C33.7363816,23.250636 33.5952833,23.1620943 33.4698626,23.0527193 C33.4123781,23.000636 33.3444418,22.9589693 33.3235384,22.9589693 C33.2974091,22.9589693 33.2503763,22.9329276 33.2137953,22.906886 C33.1772142,22.875636 33.0831487,22.7923026 32.994309,22.719386 C32.9106952,22.6464693 32.7382417,22.516261 32.6180468,22.4277193 C32.4926261,22.3391776 32.3933347,22.2454276 32.3933347,22.2245943 C32.3933347,22.203761 32.3515278,22.172511 32.304495,22.156886 C32.2522364,22.141261 32.0275242,21.9485526 31.7975862,21.735011 C31.5728741,21.5214693 31.3742913,21.344386 31.3533878,21.344386 C31.3011292,21.3391776 30.4754427,20.4902193 30.4493134,20.4120943 C30.4231841,20.3183443 30.0260185,20.2558443 29.43027,20.2558443 C29.163751,20.250636 28.9442647,20.2298026 28.9442647,20.203761 C28.9442647,20.1829276 28.7561336,20.141261 28.5261956,20.125636 C28.2962576,20.1048026 28.0976748,20.0683443 28.0819972,20.0423026 C28.0715455,20.0214693 27.9252213,19.985011 27.7684454,19.9641776 C27.6116695,19.9485526 27.4810229,19.9120943 27.4810229,19.8860526 C27.4810229,19.8652193 27.3765056,19.828761 27.245859,19.813136 C27.1152124,19.7923026 27.0106952,19.7558443 27.0106952,19.7298026 C27.0106952,19.6985526 26.9166296,19.6620943 26.8016606,19.6464693 C26.6866916,19.625636 26.5926261,19.594386 26.5926261,19.5683443 C26.5926261,19.5423026 26.5664968,19.5214693 26.5299157,19.5214693 C26.441076,19.5214693 25.5892603,19.1048026 25.5056465,19.016261 C25.4690654,18.9798026 25.406355,18.9485526 25.3645481,18.9485526 C25.3279671,18.9485526 25.2861602,18.9120943 25.2652567,18.8704276 C25.2495791,18.828761 25.2025464,18.7923026 25.1659653,18.7923026 C25.1241584,18.7923026 25.0509963,18.7454276 24.9987377,18.688136 C24.946479,18.6308443 24.8837687,18.5839693 24.8576394,18.5839693 C24.8053807,18.5839693 24.7217669,18.5110526 24.1521478,17.9798026 C23.9431132,17.7870943 23.7706597,17.610011 23.7706597,17.5839693 C23.7706597,17.5579276 23.7027235,17.4745943 23.6138838,17.4016776 C23.53027,17.3339693 23.4571079,17.2402193 23.4571079,17.1985526 C23.4571079,17.156886 23.4362045,17.125636 23.415301,17.125636 C23.3473648,17.125636 22.840456,16.375636 22.803875,16.2245943 C22.7829715,16.1464693 22.7463905,16.0839693 22.725487,16.0839693 C22.6993577,16.0839693 22.6680025,16.016261 22.6470991,15.9277193 C22.6261956,15.844386 22.5948404,15.7714693 22.5687111,15.7714693 C22.5425818,15.7714693 22.5112266,15.703761 22.4903232,15.6152193 C22.4694197,15.531886 22.4380645,15.4589693 22.4119352,15.4589693 C22.3910317,15.4589693 22.3544507,15.3652193 22.3335472,15.250636 C22.3126438,15.1360526 22.2812886,15.0423026 22.2551593,15.0423026 C22.2342558,15.0423026 22.1976748,14.938136 22.1819972,14.8079276 C22.1610937,14.6777193 22.1245127,14.5735526 22.1036093,14.5735526 C22.0774799,14.5735526 22.0408989,14.4485526 22.0252213,14.3027193 C22.0043178,14.1516776 21.9677368,14.0058443 21.9416075,13.9745943 C21.8423161,13.8548026 21.7743798,12.2766776 21.8370902,11.422511 C21.8684454,10.969386 21.9154782,10.5683443 21.9363816,10.5423026 C21.9625109,10.5110526 21.999092,10.3495943 22.0147696,10.188136 C22.035673,10.0214693 22.0722541,9.87563597 22.0983834,9.86001097 C22.1192868,9.84438597 22.1558679,9.7402193 22.1767713,9.62563597 C22.1976748,9.51105263 22.2342558,9.41730263 22.2603852,9.41730263 C22.2865145,9.41730263 22.3074179,9.3652193 22.3074179,9.29751097 C22.3074179,9.23501097 22.3387731,9.13605263 22.38058,9.07876097 C22.4171611,9.0214693 22.4641938,8.90688597 22.4850973,8.8183443 C22.5060007,8.73501097 22.5425818,8.65167763 22.5582594,8.63605263 C22.5791628,8.62042763 22.6627767,8.4745943 22.7463905,8.30792763 C22.8300043,8.1464693 22.918844,7.99542763 22.9449733,7.97980263 C22.9711026,7.96417763 22.9711026,7.92251097 22.9397474,7.88605263 C22.9083922,7.8495943 22.8561336,7.66730263 22.8195526,7.4745943 C22.7829715,7.28188597 22.7359387,7.12563597 22.7150353,7.12563597 C22.6941318,7.12563597 22.6627767,7.01105263 22.6418732,6.8652193 C22.6209697,6.7245943 22.5896146,6.60480263 22.5687111,6.60480263 C22.5425818,6.60480263 22.5060007,6.45376097 22.4903232,6.26626097 C22.4694197,6.07876097 22.4328387,5.9277193 22.4119352,5.9277193 C22.3858059,5.9277193 22.3492248,5.7714693 22.3335472,5.57876097 C22.3126438,5.3808443 22.2760627,5.19855263 22.2499334,5.16730263 C22.2238041,5.13605263 22.1872231,4.7870943 22.1663196,4.3964693 C22.150642,4.0058443 22.114061,3.67251097 22.0879317,3.65688597 C22.0304472,3.62042763 22.0304472,3.32355263 22.0931575,3.32355263 C22.114061,3.32355263 22.150642,3.07355263 22.1663196,2.7714693 C22.1819972,2.46417763 22.2133524,2.20376097 22.2447076,2.18292763 C22.2708369,2.16730263 22.3126438,2.07355263 22.3335472,1.97980263 C22.3492248,1.89126097 22.3858059,1.81313597 22.4119352,1.81313597 C22.4328387,1.81313597 22.4694197,1.75063597 22.4850973,1.6777193 C22.5269042,1.51626097 22.7777457,1.26105263 23.0599423,1.0839693 C23.2219441,0.990219299 23.3578165,0.958969299 23.7549821,0.938135965 C24.2514392,0.912094299 24.9726084,1.00063597 24.9726084,1.0839693 C24.9726084,1.11001097 25.0457705,1.14126097 25.1293843,1.1620943 C25.218224,1.18292763 25.2861602,1.21417763 25.2861602,1.23501097 C25.2861602,1.2558443 25.369774,1.3027193 25.4690654,1.33917763 C25.5683568,1.37563597 25.6519706,1.42251097 25.6519706,1.44855263 C25.6519706,1.46938597 25.7094551,1.5058443 25.7826172,1.5214693 C25.8557793,1.54230263 25.9132638,1.57876097 25.9132638,1.60480263 C25.9132638,1.63605263 25.9498449,1.65688597 25.9916518,1.65688597 C26.0386845,1.65688597 26.0857173,1.6933443 26.1013949,1.73501097 C26.1222984,1.77667763 26.1641053,1.81313597 26.2006863,1.81313597 C26.2320415,1.81313597 26.3052036,1.86001097 26.3574622,1.91730263 C26.4097209,1.9745943 26.4776571,2.0214693 26.5037864,2.0214693 C26.5351416,2.0214693 26.634433,2.10480263 26.7337244,2.20376097 C26.8330158,2.3027193 26.9323072,2.38605263 26.9532107,2.38605263 C27.0054693,2.38605263 28.7352302,4.07355263 28.7352302,4.12042763 C28.7352302,4.13605263 28.8449733,4.26626097 28.9860716,4.40688597 C29.2525906,4.6777193 29.623627,5.11001097 29.6915632,5.22980263 C29.7176925,5.2714693 29.7960805,5.37563597 29.8744684,5.45376097 C29.9528564,5.5370943 30.0730512,5.6777193 30.1462133,5.7714693 C30.2193754,5.8652193 30.3186668,5.9902193 30.3656996,6.0527193 C30.4179582,6.11001097 30.5381531,6.26626097 30.6374445,6.3964693 C30.7367359,6.52667763 30.8569308,6.67251097 30.9039635,6.7245943 C30.9457705,6.7714693 30.9823515,6.8339693 30.9823515,6.85480263 C30.9823515,6.8808443 31.0293843,6.9433443 31.0868688,6.99542763 C31.1443533,7.04751097 31.191386,7.12042763 31.191386,7.15167763 C31.191386,7.18813597 31.2279671,7.22980263 31.269774,7.25063597 C31.3115809,7.26626097 31.348162,7.30792763 31.348162,7.33917763 C31.348162,7.37042763 31.4056465,7.45376097 31.4788085,7.5214693 C31.5519706,7.58917763 31.6094551,7.65688597 31.6094551,7.6777193 C31.6094551,7.6933443 31.7401017,7.8964693 31.8968776,8.12042763 C32.0536535,8.34438597 32.1843001,8.5527193 32.1843001,8.5839693 C32.1843001,8.61001097 32.2052036,8.63605263 32.2365588,8.63605263 C32.2626881,8.63605263 32.2992691,8.6933443 32.3201726,8.76105263 C32.3358502,8.8339693 32.3828829,8.90167763 32.4246899,8.91730263 C32.4664968,8.93292763 32.4978519,8.97980263 32.4978519,9.02667763 C32.4978519,9.0683443 32.5239813,9.10480263 32.5501106,9.10480263 C32.5814658,9.10480263 32.6023692,9.1308443 32.6023692,9.15688597 C32.6023692,9.21417763 32.7800486,9.48501097 32.9054693,9.6152193 C32.9368245,9.65167763 32.9681797,9.71938597 32.9681797,9.76105263 C32.9681797,9.8027193 32.9890831,9.8339693 33.0204383,9.8339693 C33.0465676,9.8339693 33.0831487,9.89126097 33.1040521,9.96417763 C33.1197297,10.0370943 33.1510849,10.094386 33.1719883,10.094386 C33.1928918,10.094386 33.2346987,10.156886 33.2660539,10.2402193 C33.3339901,10.3860526 33.4437333,10.5683443 33.4959919,10.6152193 C33.5116695,10.6308443 33.5587023,10.719386 33.6005092,10.813136 C33.6423161,10.9016776 33.6893488,10.9798026 33.7102523,10.9798026 C33.7259299,10.9798026 33.7572851,11.047511 33.7781885,11.1360526 C33.799092,11.2245943 33.8304472,11.2923026 33.8565765,11.2923026 C33.8827058,11.2923026 33.914061,11.360011 33.9349644,11.4433443 C33.950642,11.5266776 34.0029007,11.610011 34.0447076,11.625636 C34.0865145,11.641261 34.1178697,11.688136 34.1178697,11.735011 C34.1178697,11.7766776 34.1387731,11.813136 34.1649024,11.813136 C34.1910317,11.813136 34.2276128,11.875636 34.2485162,11.953761 C34.2641938,12.031886 34.3007749,12.110011 34.3164525,12.125636 C34.3373559,12.141261 34.4470991,12.3391776 34.5620681,12.5683443 C34.6770371,12.797511 34.7867802,12.9954276 34.8076837,13.0110526 C34.8233612,13.0266776 34.8599423,13.1048026 34.8756199,13.1829276 C34.8965233,13.2610526 34.9278785,13.3235526 34.9540078,13.3235526 C34.9749113,13.3235526 35.0167182,13.4173026 35.0532992,13.531886 C35.0846544,13.6464693 35.1369131,13.7402193 35.1630424,13.7402193 C35.1839458,13.7402193 35.2205269,13.813136 35.2414303,13.8964693 C35.2623338,13.985011 35.2989148,14.0527193 35.3250441,14.0527193 C35.3511735,14.0527193 35.3720769,14.0839693 35.3720769,14.1204276 C35.3773028,14.1516776 35.4191097,14.2766776 35.4765942,14.391261 C35.5340787,14.5058443 35.5758856,14.6308443 35.5811115,14.6673026 C35.5811115,14.6985526 35.6020149,14.7298026 35.6281442,14.7298026 C35.6542736,14.7298026 35.6908546,14.8027193 35.7117581,14.8860526 C35.7326615,14.9745943 35.7640167,15.0423026 35.790146,15.0423026 C35.8110495,15.0423026 35.8476305,15.1048026 35.868534,15.188136 C35.8842116,15.266261 35.9730512,15.4798026 36.0566651,15.6673026 C36.1455047,15.8548026 36.2395703,16.063136 36.2709255,16.1360526 C36.3022806,16.2089693 36.3545393,16.3391776 36.3963462,16.422511 C36.4329272,16.5110526 36.4956376,16.688136 36.5322186,16.828761 C36.5687997,16.9641776 36.6158325,17.0735526 36.6367359,17.0735526 C36.6576394,17.0735526 36.6785428,17.1152193 36.6785428,17.1673026 C36.6785428,17.2141776 36.7151239,17.3235526 36.7569308,17.4016776 C36.7987377,17.4798026 36.8457705,17.625636 36.8666739,17.7245943 C36.8823515,17.8235526 36.9189325,17.906886 36.9450619,17.906886 C36.9659653,17.906886 37.0025464,18.0110526 37.0234498,18.141261 C37.0391274,18.2714693 37.0757085,18.375636 37.1018378,18.375636 C37.1227412,18.375636 37.1593223,18.4954276 37.1802257,18.6360526 C37.2011292,18.781886 37.2324844,18.8964693 37.2586137,18.8964693 C37.284743,18.8964693 37.3160982,19.016261 37.3370016,19.156886 C37.3579051,19.3027193 37.3892603,19.4173026 37.4153896,19.4173026 C37.436293,19.4173026 37.4728741,19.5266776 37.4885517,19.6673026 C37.5042293,19.8027193 37.5408103,19.953761 37.5721655,20.0058443 C37.5982948,20.0527193 37.6348759,20.2402193 37.6557793,20.422511 C37.6714569,20.5995943 37.7132638,20.7610526 37.7393931,20.781886 C37.8177811,20.8339693 37.8230069,22.8652193 37.744619,22.9641776 C37.7080379,23.0058443 37.666231,23.1152193 37.6453276,23.2089693 C37.62965,23.297511 37.5878431,23.375636 37.5617138,23.375636 C37.5355844,23.375636 37.514681,23.406886 37.514681,23.4433443 C37.514681,23.563136 37.0077722,23.9902193 36.7987377,24.047511 C36.558348,24.1152193 35.8162753,24.110011 35.4400131,24.0423026 Z M34.8494906,22.078761 C34.8494906,22.0579276 34.9383302,22.0214693 35.0480734,22.0110526 C35.1578165,21.9954276 35.3093666,21.9277193 35.3825286,21.860011 C35.560208,21.6933443 35.8267271,21.1985526 35.8737598,20.9433443 C35.8894374,20.8339693 35.9260185,20.7245943 35.9469219,20.6933443 C36.0148581,20.5995943 36.0514392,19.8079276 36.020084,19.188136 C35.983503,18.6204276 35.9782771,18.5839693 35.8789857,18.6152193 C35.8267271,18.6308443 35.7326615,18.6933443 35.6804029,18.7454276 C35.6281442,18.797511 35.5445304,18.844386 35.5027235,18.844386 C35.4609166,18.844386 35.4243356,18.860011 35.4243356,18.8860526 C35.4243356,18.922511 35.3093666,18.9954276 35.0480734,19.1152193 C34.9644596,19.1516776 34.9017492,19.1985526 34.9017492,19.2141776 C34.9017492,19.235011 34.833813,19.266261 34.7449733,19.2870943 C34.6613595,19.3079276 34.5881974,19.3391776 34.5881974,19.3652193 C34.5881974,19.3860526 34.4732284,19.438136 34.3269042,19.4745943 C34.1858059,19.5110526 34.065611,19.5579276 34.065611,19.5839693 C34.065611,19.6048026 33.9715455,19.641261 33.8565765,19.656886 C33.7416075,19.6777193 33.6475419,19.7089693 33.6475419,19.7298026 C33.6475419,19.7558443 33.5534764,19.7870943 33.4385074,19.8079276 C33.3235384,19.828761 33.2190211,19.860011 33.2033435,19.8860526 C33.1876659,19.906886 33.0517935,19.9433443 32.9002434,19.9641776 C32.7539193,19.985011 32.6023692,20.0214693 32.571014,20.047511 C32.5448847,20.0683443 32.3253984,20.1048026 32.0902346,20.125636 C31.8550707,20.1464693 31.6617138,20.1829276 31.6617138,20.203761 C31.6617138,20.2298026 31.614681,20.250636 31.5519706,20.250636 C31.4579051,20.250636 31.4683568,20.2714693 31.6199069,20.391261 C31.8132638,20.5527193 31.9752656,20.6933443 32.226107,20.9277193 C32.3201726,21.0110526 32.419464,21.0839693 32.4455933,21.0839693 C32.4769485,21.0839693 32.5396589,21.125636 32.5919175,21.1777193 C32.7121124,21.2870943 32.8532107,21.3808443 33.0099866,21.4485526 C33.0779228,21.4798026 33.1667625,21.5370943 33.2085694,21.578761 C33.2556022,21.6204276 33.3235384,21.656886 33.3653453,21.656886 C33.4071522,21.656886 33.4385074,21.6777193 33.4385074,21.703761 C33.4385074,21.7298026 33.5587023,21.781886 33.6998006,21.8183443 C33.8461248,21.8548026 33.9610937,21.9016776 33.9610937,21.922511 C33.9610937,21.9433443 34.0760627,21.9745943 34.2223869,21.9954276 C34.3634852,22.016261 34.4941318,22.0527193 34.5150353,22.078761 C34.5516163,22.141261 34.8494906,22.141261 34.8494906,22.078761 Z M23.8072408,6.82876097 C23.8490477,6.71938597 24.3141496,6.2402193 24.3768599,6.2402193 C24.4029892,6.2402193 24.5075065,6.15688597 24.6067979,6.05792763 C24.7060893,5.9589693 24.8053807,5.87563597 24.8262842,5.87563597 C24.8524135,5.87563597 24.9255756,5.82355263 24.988286,5.7558443 C25.0509963,5.6933443 25.176417,5.60480263 25.2600309,5.56313597 C25.3488705,5.5214693 25.4272585,5.4745943 25.4429361,5.4589693 C25.5683568,5.3339693 26.671014,4.79751097 26.9584365,4.7245943 C27.1047607,4.68813597 27.2197297,4.64126097 27.2197297,4.62042763 C27.2197297,4.5995943 27.324247,4.56313597 27.4548936,4.54230263 C27.5855402,4.52667763 27.6900574,4.4902193 27.6900574,4.46417763 C27.6900574,4.43813597 27.669154,4.41730263 27.6482505,4.41730263 C27.6221212,4.41730263 27.5437333,4.3652193 27.475797,4.30792763 C27.4078608,4.24542763 27.2928918,4.15688597 27.2197297,4.1152193 C27.1465676,4.0683443 27.0681797,4.00063597 27.0472762,3.96417763 C27.0263728,3.9277193 26.9741141,3.8964693 26.9323072,3.8964693 C26.8957262,3.8964693 26.8277899,3.8652193 26.7912089,3.82876097 C26.7546279,3.79230263 26.6657882,3.73501097 26.5926261,3.69855263 C26.4253984,3.62042763 26.2581708,3.51626097 26.2268156,3.46938597 C26.211138,3.45376097 26.1327501,3.41730263 26.0543621,3.40167763 C25.9759742,3.3808443 25.9132638,3.34438597 25.9132638,3.32355263 C25.9132638,3.3027193 25.8035207,3.2558443 25.6676482,3.21938597 C25.5265499,3.1777193 25.406355,3.1308443 25.3906775,3.11001097 C25.3436447,3.04751097 24.6538307,2.9902193 24.3925375,3.03188597 C24.0842116,3.07876097 23.7497563,3.3808443 23.6609166,3.6933443 C23.6243356,3.8183443 23.5668511,3.93813597 23.5354959,3.9589693 C23.4518821,4.01626097 23.4623338,6.35480263 23.5511735,6.38605263 C23.5825286,6.3964693 23.6138838,6.46938597 23.6138838,6.54230263 C23.6138838,6.86001097 23.7340787,7.02667763 23.8072408,6.82876097 Z" id="Shape" fill-rule="nonzero" transform="translate(29.806886, 12.514633) rotate(-7.000000) translate(-29.806886, -12.514633) "></path>
                <path d="M47.1617808,21.2916667 C45.4738269,21.1666667 44.0576179,20.4895833 42.8870244,19.2708333 C41.7477861,18.078125 41.1050049,16.6666667 40.8907445,14.890625 C40.8019048,14.1614583 40.7862272,10.359375 40.8646152,9.58854167 C41.0736497,7.66666667 41.7477861,6.1875 43.0019934,4.9375 C44.0680696,3.86979167 45.1498233,3.328125 46.6914531,3.08333333 C47.4073964,2.97395833 48.88109,3.015625 49.6022591,3.16666667 C51.6821528,3.61458333 53.3805585,4.94791667 54.3682467,6.90104167 C54.7706382,7.69791667 55.0162538,8.58333333 55.1312228,9.640625 C55.199159,10.296875 55.199159,14.015625 55.1312228,14.671875 C54.9221883,16.59375 54.242826,18.0625 52.9624894,19.3489583 C52.0636409,20.25 50.9296285,20.8645833 49.6545178,21.140625 C49.2678039,21.2239583 47.9143052,21.3645833 47.7366258,21.34375 C47.7104965,21.3385417 47.4492033,21.3177083 47.1617808,21.2916667 Z M48.3898588,19.265625 C50.1666524,19.078125 51.4783442,18.09375 52.2099651,16.4010417 C52.6593893,15.3541667 52.748229,14.5729167 52.711648,11.7395833 C52.6907445,9.796875 52.6802928,9.55729167 52.5757755,9.08854167 C52.3824186,8.22395833 52.1472547,7.640625 51.7396373,7.02604167 C51.5044735,6.66666667 50.9609837,6.08854167 50.642206,5.859375 C49.3305142,4.90104167 47.2662981,4.74479167 45.8239597,5.49479167 C44.8519491,6.00520833 44.0053592,7.078125 43.6186453,8.30729167 C43.3050935,9.28645833 43.2946418,9.4375 43.2946418,12.1302083 C43.2946418,13.96875 43.3103194,14.703125 43.362578,14.9947917 C43.5611608,16.0833333 43.8903902,16.875 44.4704611,17.640625 C44.8833043,18.1875 45.3693096,18.5885417 45.9598322,18.875 C46.4615151,19.1145833 46.7489376,19.1979167 47.3237826,19.2604167 C47.8359172,19.3229167 47.8411431,19.3229167 48.3898588,19.265625 Z" id="Shape" fill-rule="nonzero"></path>
                <path d="M-3.34239303e-11,12.1822917 L-3.34239303e-11,3.27604167 L1.22807795,3.27604167 L2.45615589,3.27604167 L2.45093003,6.88541667 C2.45093003,9.49479167 2.41434898,11.453125 2.33073516,13.9791667 C2.2680248,15.9010417 2.21576616,17.4739583 2.22099203,17.4791667 C2.22099203,17.484375 3.5170062,14.2916667 5.09521701,10.3854167 L7.96944198,3.27604167 L8.80558016,3.27604167 L9.6469442,3.27604167 L12.5159433,10.3697917 C14.09938,14.2708333 15.3953942,17.4114583 15.4058459,17.3541667 C15.4162976,17.296875 15.3744907,15.8645833 15.3117803,14.171875 C15.2333924,11.8854167 15.2072631,10.0885417 15.2072631,7.18229167 L15.2072631,3.27604167 L16.435341,3.27604167 L17.663419,3.27604167 L17.663419,12.1822917 L17.663419,21.0885417 L16.0852081,21.078125 L14.5069973,21.0625 L11.7059345,13.953125 C10.1695306,10.0416667 8.88919398,6.79166667 8.8578388,6.72916667 C8.81603189,6.63020833 8.33525244,7.80729167 5.96271036,13.8489583 L3.1146147,21.0885417 L1.55730735,21.0885417 L-3.34239303e-11,21.0885417 L-3.34239303e-11,12.1822917 Z" id="Path"></path>
                <path d="M59.5225864,12.1822917 L59.5225864,3.27604167 L60.7506643,3.27604167 L61.9787422,3.27604167 L61.989194,10.1302083 L62.0048716,16.984375 L66.2848539,10.1302083 L70.5596103,3.27604167 L71.8085917,3.27604167 L73.0575731,3.27604167 L73.0575731,12.1822917 L73.0575731,21.0885417 L71.8294951,21.0885417 L70.6014172,21.0885417 L70.6014172,14.2395833 C70.6014172,10.4739583 70.5857396,7.390625 70.5648361,7.390625 C70.5387068,7.390625 68.5946856,10.4739583 66.2430469,14.2395833 L61.9630647,21.0885417 L60.7402126,21.0885417 L59.5225864,21.0885417 L59.5225864,12.1822917 Z" id="Path"></path>
                <polygon id="Path" points="77.3950399 12.1822917 77.3950399 3.27604167 82.829938 3.27604167 88.2648361 3.27604167 88.2648361 4.23958333 88.2648361 5.203125 84.0580159 5.203125 79.8511957 5.203125 79.8511957 13.1458333 79.8511957 21.0885417 78.6231178 21.0885417 77.3950399 21.0885417"></polygon>
                <polygon id="Path" points="90.9822852 12.1822917 90.9822852 3.27604167 96.9136404 3.27604167 102.844996 3.27604167 102.844996 4.23958333 102.844996 5.203125 98.1417183 5.203125 93.4384411 5.203125 93.4384411 8.35416667 93.4384411 11.5052083 97.5146147 11.5052083 101.590788 11.5052083 101.590788 12.46875 101.590788 13.4322917 97.5146147 13.4322917 93.4384411 13.4322917 93.4384411 16.2708333 93.4384411 19.109375 98.079008 19.1197917 102.714349 19.1354167 102.730027 20.1145833 102.740478 21.0885417 96.8613818 21.0885417 90.9822852 21.0885417"></polygon>
                <polygon id="Path" points="104.057396 20.1145833 104.073074 19.1354167 106.936847 19.1197917 109.795394 19.109375 109.795394 11.1927083 109.795394 3.27604167 111.023472 3.27604167 112.25155 3.27604167 112.25155 11.1927083 112.25155 19.109375 115.125775 19.109375 118 19.109375 118 20.0989583 118 21.0885417 111.023472 21.0885417 104.046944 21.0885417"></polygon>
                <path d="M37.1382349,16.0606 C37.1068474,15.9772497 37.0649832,15.8313921 37.0440405,15.7324204 C37.0230978,15.6334486 36.9864762,15.5292619 36.965561,15.4980019 C36.944648,15.4719504 36.9080179,15.3469293 36.8870667,15.2271232 C36.8661134,15.1021084 36.8347195,15.0031324 36.8085915,15.0031218 C36.7876891,15.0031134 36.7406014,14.8624622 36.7091778,14.6905659 C36.6725286,14.5186675 36.6254409,14.3780164 36.5993129,14.3780058 C36.5784105,14.3779973 36.5417931,14.2842278 36.520844,14.1696302 C36.499895,14.0550327 36.4632776,13.9612632 36.4371496,13.9612525 C36.4110215,13.9612419 36.3744041,13.8674724 36.3586807,13.752877 C36.3377316,13.6382795 36.3063398,13.544512 36.2854374,13.5445036 C36.264535,13.5444951 36.2279219,13.4611427 36.2122048,13.3621731 C36.1912621,13.2632013 36.1546489,13.179849 36.1285209,13.1798384 C36.1023929,13.1798278 36.0657797,13.0964754 36.044837,12.9975037 C36.0291199,12.898534 35.9925068,12.8151817 35.9663788,12.8151711 C35.9402507,12.8151605 35.9193356,12.7839004 35.9193229,12.7526489 C35.9140824,12.7161866 35.8722267,12.5911634 35.8146984,12.476551 C35.7571701,12.3619386 35.7153144,12.2369154 35.7100761,12.2056617 C35.7100613,12.1692016 35.6891461,12.1379415 35.6630181,12.1379309 C35.6368901,12.1379203 35.6002833,12.0701938 35.5793448,11.9816392 C35.5584085,11.8982932 35.5270252,11.8253602 35.5008972,11.8253496 C35.4747692,11.825339 35.443388,11.7576145 35.4224495,11.6690599 C35.4015132,11.585714 35.3649043,11.5127788 35.3387763,11.5127682 C35.3126482,11.5127576 35.2917352,11.4867062 35.2917225,11.4554546 C35.2916949,11.3877429 35.0197324,10.8198959 34.9674616,10.7834145 C34.9517784,10.7677824 34.9151674,10.6896386 34.8994587,10.6115034 C34.8785245,10.533366 34.8419199,10.470848 34.8210174,10.4708395 C34.800115,10.4708311 34.7635104,10.4083131 34.7478039,10.3353864 C34.7268696,10.257249 34.6850288,10.168686 34.6484326,10.1270024 C34.4915924,9.94984659 34.454992,9.89774581 34.4235874,9.77272683 C34.407881,9.69980016 34.3765019,9.63728431 34.3555995,9.63727583 C34.3346971,9.63726735 34.2928668,9.57474726 34.2614814,9.49660563 C34.1987169,9.35594816 34.0889029,9.16839425 34.0366256,9.11628711 C34.0209425,9.10065497 33.9738802,9.02250698 33.9320393,8.93394392 C33.8902006,8.85058946 33.8431362,8.76723288 33.8274531,8.75160073 C33.7856313,8.70991502 33.6758194,8.52756971 33.6078293,8.38691012 C33.5712204,8.31397496 33.529388,8.24624628 33.5137048,8.23061414 C33.4457444,8.16287485 33.2522762,7.86590655 33.2522571,7.81902921 C33.2522465,7.79298624 33.2156546,7.76171984 33.1738413,7.7408685 C33.1320301,7.72522575 33.0954318,7.67833357 33.0954148,7.63666482 C33.0953979,7.59499607 33.0797041,7.55332096 33.0587974,7.54289529 C32.9960796,7.51682687 32.7817005,7.19901572 32.7816751,7.13651259 C32.7816645,7.11046963 32.7555258,7.08441605 32.7293978,7.08440545 C32.6980442,7.08439273 32.6562224,7.04270702 32.6405265,6.99582331 C32.6196029,6.94372889 32.5620852,6.85515947 32.509808,6.80305233 C32.4575286,6.7457366 32.4156941,6.67279932 32.4156793,6.63633917 C32.4156666,6.6050876 32.3790704,6.56340401 32.3372571,6.54255267 C32.2954459,6.52690993 32.2588476,6.48001774 32.2588306,6.43834899 C32.2588136,6.39668024 32.2431199,6.35500513 32.2222132,6.34457946 C32.1594954,6.31851105 31.7882867,5.84958706 31.7882655,5.79750112 C31.7830314,5.77666463 31.7150668,5.69850816 31.6314274,5.62555392 C31.5425646,5.55780615 31.4746021,5.48485827 31.4745915,5.4588153 C31.474583,5.43798093 31.4118418,5.35461799 31.3334238,5.27124868 C31.2497803,5.18787725 31.1399875,5.05240929 31.0824719,4.96904846 C31.0249585,4.89089623 30.9360808,4.78668831 30.8890334,4.74500048 C30.8367583,4.69810193 30.7949323,4.64599903 30.7949238,4.62516465 C30.7949153,4.60433028 30.622394,4.41675093 30.4080574,4.20311165 C30.1937228,3.99468096 30.0002801,3.76021579 29.9845715,3.68208052 L29.947935,3.54143365 L30.3189528,3.5415842 C30.5227513,3.5416669 30.6899791,3.56256913 30.6899876,3.5834035 C30.6899982,3.60944647 30.9617444,3.64601689 31.2961894,3.66177838 C31.6306365,3.68274847 31.9285107,3.71932949 31.9651005,3.7453873 C31.9964648,3.771443 32.1689245,3.80797313 32.3518291,3.82888172 C32.5295081,3.84978819 32.6758398,3.88630772 32.6758483,3.90714209 C32.6758568,3.92797647 32.7856093,3.96448115 32.9214835,3.98537066 C33.052132,4.00625805 33.2141448,4.05320113 33.2716413,4.08968461 C33.3343634,4.12617021 33.4806994,4.17310693 33.6061223,4.19399219 C33.7263197,4.21487534 33.825621,4.25137578 33.8256295,4.27221016 C33.8256401,4.29825313 33.8988112,4.32953437 33.9824294,4.35040268 C34.0712731,4.3712731 34.1392187,4.40255223 34.1392293,4.4285952 C34.1392399,4.45463817 34.212411,4.48591941 34.2960292,4.50678772 C34.3848729,4.52765814 34.4528185,4.55893727 34.452827,4.57977164 C34.4528333,4.59539742 34.5155596,4.64230021 34.599182,4.6735857 C34.7559798,4.74656963 34.9075605,4.84038581 35.0173363,4.93418503 C35.0539304,4.97066002 35.1218759,5.00193915 35.1636808,5.00195612 C35.2054856,5.00197308 35.2525308,5.03845232 35.2682246,5.08012743 C35.289144,5.12180466 35.3309637,5.15828178 35.3727685,5.15829875 C35.4145733,5.15831571 35.4877508,5.20522274 35.5348046,5.26253636 C35.587084,5.31985209 35.6498103,5.36675488 35.6759383,5.36676548 C35.7020663,5.36677608 35.9895869,5.64294818 36.3189377,5.98164036 C37.0508254,6.72676612 37.0665086,6.74239826 37.0665383,6.81531858 C37.0665489,6.84136154 37.0822405,6.87782806 37.1083728,6.88825585 C37.165865,6.91432215 37.3802441,7.2321333 37.3802695,7.29463642 C37.3802801,7.32067939 37.4011931,7.34673084 37.4273212,7.34674145 C37.4534492,7.34675205 37.5057391,7.43011075 37.5423587,7.52908888 C37.5789782,7.628067 37.6260425,7.71142358 37.6469449,7.71143206 C37.6678473,7.71144055 37.6992307,7.78437358 37.720167,7.86771956 C37.7411055,7.95627414 37.7724866,8.02399858 37.7986147,8.02400918 C37.8247427,8.02401978 37.856126,8.09695282 37.8770623,8.1802988 C37.8979987,8.26364478 37.929382,8.33657781 37.95551,8.33658842 C37.9764124,8.3365969 38.0130277,8.42515783 38.0339725,8.52933819 C38.0549194,8.63872714 38.0915411,8.74291386 38.122901,8.75855236 C38.1490354,8.77418874 38.1856613,8.88879265 38.2013869,9.00859667 C38.2171103,9.12319209 38.2485042,9.22216809 38.2746323,9.22217869 C38.2955347,9.22218718 38.3321584,9.33158249 38.3531181,9.472223 C38.36885,9.6076528 38.4054844,9.74309108 38.4263974,9.76914253 C38.4943663,9.85771618 38.5836426,10.9411397 38.5839416,11.6755514 C38.5842491,12.4307975 38.4958506,13.5037318 38.4279348,13.545373 C38.4070387,13.5609903 38.3705125,13.6911903 38.3496673,13.8318138 C38.3288243,13.9776459 38.2975279,14.1182652 38.2714105,14.1442976 C38.2505208,14.1755407 38.2139819,14.2744891 38.1931176,14.3682353 C38.1722534,14.4619815 38.1252802,14.6025945 38.0835072,14.6807064 C38.0417342,14.7588184 38.010423,14.8629775 38.0104442,14.9150635 C38.0104633,14.9619408 37.9895778,15.0036011 37.9634498,15.0035905 C37.9373218,15.0035799 37.9007722,15.0764853 37.8799038,15.1598143 C37.8590374,15.248352 37.8277113,15.316051 37.8015833,15.3160404 C37.7806809,15.3160319 37.744125,15.3733116 37.7284779,15.4462255 C37.7076052,15.5191373 37.6762749,15.5764191 37.6501469,15.5764085 C37.6240188,15.5763979 37.5874672,15.6440948 37.5665987,15.7274238 C37.5509558,15.810755 37.4987401,15.909697 37.4569501,15.9461402 C37.415158,15.9773748 37.3838277,16.0346566 37.3838425,16.0711168 C37.3838637,16.1232027 37.2793835,16.2012892 37.2114506,16.2012617 C37.206225,16.2012595 37.174846,16.1387437 37.1382349,16.0606 Z" id="Path" transform="translate(34.265939, 9.871348) rotate(-7.000000) translate(-34.265939, -9.871348) "></path>
            </g>
        </g>
    </g>
</svg>